<svg width="60" height="62" viewBox="0 0 60 62" fill="none" xmlns="http://www.w3.org/2000/svg">
<path fill-rule="evenodd" clip-rule="evenodd" d="M23.3501 7.00757e-07C22.2486 -0.000538344 21.1694 0.309921 20.2383 0.89528C19.3071 1.48064 18.5622 2.31685 18.0901 3.30667C15.8158 3.32651 14.047 3.42901 12.4643 4.04405C10.575 4.77903 8.93187 6.02809 7.72295 7.64832C6.5027 9.27851 5.92748 11.3749 5.1428 14.255L4.98653 14.8172L3.28084 24.6181C2.66572 25.0414 2.13041 25.544 1.66492 26.1359C-1.33085 29.9485 0.0955514 35.626 2.94834 46.9712C4.76043 54.1897 5.66814 57.7972 8.37463 59.9003C11.0811 62 14.8217 62 22.3028 62H37.6972C45.1783 62 48.9189 62 51.6254 59.9003C54.3319 57.7972 55.2362 54.1897 57.0517 46.9712C59.9044 35.6227 61.3308 29.9518 58.3351 26.1359C57.8771 25.5491 57.331 25.0361 56.7158 24.6148L55.0101 14.8205L54.8572 14.2583C54.0692 11.3749 53.494 9.27851 52.2771 7.64501C51.0677 6.02601 49.4246 4.77812 47.5357 4.04405C45.953 3.42901 44.1808 3.32651 41.9099 3.30997C41.4383 2.31953 40.6935 1.48264 39.7624 0.896677C38.8312 0.31071 37.7518 -0.000241769 36.6499 7.00757e-07H23.3501ZM51.3394 22.8028L50.1358 15.8985C49.1948 12.4595 48.8524 11.3782 48.2738 10.6045C47.6228 9.73188 46.7378 9.05921 45.7203 8.66347C44.9888 8.37909 44.1044 8.29643 41.9033 8.27328C41.4307 9.26085 40.6864 10.095 39.7566 10.6791C38.8268 11.2632 37.7496 11.5732 36.6499 11.5733H23.3501C22.2504 11.5732 21.1732 11.2632 20.2434 10.6791C19.3136 10.095 18.5693 9.26085 18.0967 8.27328C15.8923 8.29643 15.0112 8.37909 14.2797 8.66347C13.2622 9.05921 12.3772 9.73188 11.7262 10.6045C11.1476 11.3782 10.8052 12.4562 9.8642 15.8951L8.66058 22.8028C11.9789 22.32 16.401 22.32 22.3028 22.32H37.6972C43.599 22.32 48.0211 22.32 51.3394 22.8028ZM16.7003 33.0667C17.3616 33.0667 17.9959 33.328 18.4636 33.793C18.9312 34.2581 19.194 34.8889 19.194 35.5467V48.7733C19.194 49.4311 18.9312 50.0619 18.4636 50.527C17.9959 50.992 17.3616 51.2533 16.7003 51.2533C16.0389 51.2533 15.4046 50.992 14.937 50.527C14.4693 50.0619 14.2066 49.4311 14.2066 48.7733V35.5467C14.2066 34.8889 14.4693 34.2581 14.937 33.793C15.4046 33.328 16.0389 33.0667 16.7003 33.0667ZM45.7934 35.5467C45.7934 34.8889 45.5307 34.2581 45.063 33.793C44.5954 33.328 43.9611 33.0667 43.2997 33.0667C42.6384 33.0667 42.0041 33.328 41.5364 33.793C41.0688 34.2581 40.806 34.8889 40.806 35.5467V48.7733C40.806 49.4311 41.0688 50.0619 41.5364 50.527C42.0041 50.992 42.6384 51.2533 43.2997 51.2533C43.9611 51.2533 44.5954 50.992 45.063 50.527C45.5307 50.0619 45.7934 49.4311 45.7934 48.7733V35.5467ZM30 33.0667C30.6614 33.0667 31.2957 33.328 31.7633 33.793C32.231 34.2581 32.4937 34.8889 32.4937 35.5467V48.7733C32.4937 49.4311 32.231 50.0619 31.7633 50.527C31.2957 50.992 30.6614 51.2533 30 51.2533C29.3386 51.2533 28.7043 50.992 28.2367 50.527C27.769 50.0619 27.5063 49.4311 27.5063 48.7733V35.5467C27.5063 34.8889 27.769 34.2581 28.2367 33.793C28.7043 33.328 29.3386 33.0667 30 33.0667Z" fill="white"/>
</svg>
