<svg width="60" height="59" viewBox="0 0 60 59" fill="none" xmlns="http://www.w3.org/2000/svg">
<path d="M23.7212 18.585L25.3914 24.627C26.9643 30.3188 27.7492 33.1663 30.0616 34.4603C32.374 35.7576 35.309 34.9922 41.1792 33.4679L47.4061 31.8463C53.2762 30.322 56.2113 29.5599 57.5475 27.3188C58.8837 25.0746 58.0988 22.2271 56.5226 16.5353L54.8557 10.4965C53.2827 4.80148 52.4946 1.95397 50.1855 0.659942C47.8699 -0.637329 44.9348 0.12806 39.0646 1.6556L32.8377 3.2707C26.9676 4.79499 24.0325 5.56038 22.6996 7.80466C21.3634 10.0457 22.1482 12.8932 23.7212 18.585Z" fill="white"/>
<path d="M0.0881752 7.28908C0.173622 6.98106 0.318944 6.6929 0.515832 6.44107C0.71272 6.18925 0.957313 5.97871 1.23563 5.82148C1.51394 5.66425 1.82051 5.56342 2.13782 5.52476C2.45513 5.48609 2.77694 5.51035 3.08487 5.59614L8.608 7.12692C10.0718 7.52446 11.4076 8.29446 12.4852 9.36187C13.5629 10.4293 14.3456 11.7577 14.7571 13.2176L21.7331 38.469L22.2456 40.2397C24.2985 41.0084 26.0628 42.4451 27.1817 44.3521L28.187 44.0407L56.954 36.5652C57.2632 36.4847 57.5853 36.4659 57.9017 36.5099C58.2182 36.5538 58.5229 36.6597 58.7985 36.8214C59.074 36.9831 59.315 37.1976 59.5077 37.4524C59.7004 37.7073 59.841 37.9976 59.9215 38.3068C60.002 38.616 60.0208 38.938 59.9769 39.2545C59.9329 39.571 59.827 39.8757 59.6653 40.1513C59.5036 40.4268 59.2892 40.6678 59.0343 40.8605C58.7795 41.0532 58.4891 41.1938 58.1799 41.2743L29.5168 48.7206L28.453 49.0515C28.4303 53.1703 25.586 56.9356 21.2856 58.0545C16.1257 59.3972 10.8231 56.4264 9.44149 51.4255C8.0599 46.4212 11.1215 41.2776 16.2781 39.9381C16.5322 39.8726 16.7886 39.8164 17.0467 39.7695L10.0674 14.5116C9.87955 13.8627 9.52693 13.2735 9.04386 12.8012C8.56079 12.3289 7.96373 11.9897 7.31073 11.8166L1.78436 10.2825C1.4764 10.1974 1.18822 10.0524 0.936299 9.85593C0.684376 9.65941 0.473638 9.41518 0.316124 9.13719C0.15861 8.85921 0.0574054 8.55292 0.0182934 8.23581C-0.0208185 7.91871 0.00292762 7.597 0.0881752 7.28908Z" fill="white"/>
</svg>
