<svg width="60" height="60" viewBox="0 0 60 60" fill="none" xmlns="http://www.w3.org/2000/svg">
<path fill-rule="evenodd" clip-rule="evenodd" d="M32.1579 0.878368C31.5953 0.315949 30.8324 0 30.0369 0C29.2414 0 28.4784 0.315949 27.9159 0.878368L6.91586 21.8786L0.915864 27.8787C0.629334 28.1554 0.400788 28.4864 0.243561 28.8525C0.0863336 29.2185 0.00357472 29.6121 0.00011327 30.0105C-0.00334818 30.4088 0.072557 30.8039 0.2234 31.1726C0.374242 31.5412 0.597002 31.8762 0.87868 32.1579C1.16036 32.4396 1.49531 32.6623 1.864 32.8132C2.23269 32.964 2.62773 33.0399 3.02607 33.0365C3.42441 33.033 3.81807 32.9502 4.18408 32.793C4.55009 32.6358 4.88112 32.4072 5.15786 32.1207L6.03686 31.2417V50.9999C6.03686 53.3869 6.98508 55.6761 8.6729 57.3639C10.3607 59.0518 12.6499 60 15.0369 60H45.0369C47.4238 60 49.713 59.0518 51.4008 57.3639C53.0887 55.6761 54.0369 53.3869 54.0369 50.9999V31.2417L54.9159 32.1207C55.4817 32.6672 56.2395 32.9696 57.0261 32.9627C57.8127 32.9559 58.5651 32.6404 59.1213 32.0842C59.6775 31.5279 59.9931 30.7755 59.9999 29.9889C60.0067 29.2023 59.7043 28.4445 59.1579 27.8787L32.1579 0.878368Z" fill="white"/>
</svg>
