<svg width="108" height="112" viewBox="0 0 108 112" fill="none" xmlns="http://www.w3.org/2000/svg">
<path opacity="0.5" d="M91.8001 17.7999H16.2C11.9035 17.7999 7.78297 19.6584 4.74487 22.9666C1.70678 26.2747 0 30.7615 0 35.4399V51.4336L36.9198 64.84H71.0802L108 51.4336V35.4399C108 30.7615 106.293 26.2747 103.255 22.9666C100.217 19.6584 96.0966 17.7999 91.8001 17.7999Z" fill="black"/>
<path d="M43.2 17.7999V11.9199H64.8V17.7999H75.6001V11.9199C75.5972 8.80193 74.4584 5.81253 72.4336 3.60778C70.4089 1.40302 67.6635 0.163025 64.8 0.159912H43.2C40.3366 0.163025 37.5912 1.40302 35.5664 3.60778C33.5417 5.81253 32.4029 8.80193 32.4 11.9199V17.7999H43.2ZM36.9198 64.84L0 51.4335V88.36C0.00428876 93.0369 1.71245 97.521 4.74961 100.828C7.78677 104.135 11.9048 105.995 16.2 106H91.8001C96.0953 105.995 100.213 104.135 103.25 100.828C106.288 97.521 107.996 93.0369 108 88.36V51.4335L71.0802 64.84H36.9198Z" fill="black"/>
</svg>
