<svg width="151" height="114" viewBox="0 0 151 114" fill="none" xmlns="http://www.w3.org/2000/svg">
<path d="M26.6123 94.4512C26.6123 98.4494 28.2006 102.284 31.0277 105.111C33.8549 107.938 37.6893 109.526 41.6875 109.526C45.6857 109.526 49.5201 107.938 52.3473 105.111C55.1744 102.284 56.7627 98.4494 56.7627 94.4512C56.7627 90.453 55.1744 86.6185 52.3473 83.7914C49.5201 80.9643 45.6857 79.376 41.6875 79.376C37.6893 79.376 33.8549 80.9643 31.0277 83.7914C28.2006 86.6185 26.6123 90.453 26.6123 94.4512ZM101.988 94.4512C101.988 98.4494 103.577 102.284 106.404 105.111C109.231 107.938 113.065 109.526 117.063 109.526C121.062 109.526 124.896 107.938 127.723 105.111C130.55 102.284 132.139 98.4494 132.139 94.4512C132.139 90.453 130.55 86.6185 127.723 83.7914C124.896 80.9643 121.062 79.376 117.063 79.376C113.065 79.376 109.231 80.9643 106.404 83.7914C103.577 86.6185 101.988 90.453 101.988 94.4512Z" stroke="black" stroke-width="7" stroke-linecap="round" stroke-linejoin="round"/>
<path d="M26.6128 94.4511H11.5376V64.3008M4 4H86.9135V94.4511M56.7632 94.4511H101.989M132.139 94.4511H147.214V49.2256M147.214 49.2256H86.9135M147.214 49.2256L124.602 11.5376H86.9135M11.5376 34.1504H41.688" stroke="black" stroke-width="7" stroke-linecap="round" stroke-linejoin="round"/>
</svg>
