<svg width="104" height="112" viewBox="0 0 104 112" fill="none" xmlns="http://www.w3.org/2000/svg">
<path d="M21.8706 108.18L82.0187 4.00004" stroke="black" stroke-width="7" stroke-linecap="round"/>
<path fill-rule="evenodd" clip-rule="evenodd" d="M81.6024 108.349C93.9497 108.349 103.959 98.3393 103.959 85.992C103.959 73.6447 93.9497 63.6353 81.6024 63.6353C69.2551 63.6353 59.2456 73.6447 59.2456 85.992C59.2456 98.3393 69.2551 108.349 81.6024 108.349ZM81.6022 97.1704C87.7759 97.1704 92.7806 92.1657 92.7806 85.992C92.7806 79.8184 87.7759 74.8136 81.6022 74.8136C75.4286 74.8136 70.4239 79.8184 70.4239 85.992C70.4239 92.1657 75.4286 97.1704 81.6022 97.1704Z" fill="black"/>
<path fill-rule="evenodd" clip-rule="evenodd" d="M22.3568 49.1033C34.704 49.1033 44.7135 39.0938 44.7135 26.7465C44.7135 14.3992 34.704 4.38977 22.3568 4.38977C10.0095 4.38977 0 14.3992 0 26.7465C0 39.0938 10.0095 49.1033 22.3568 49.1033ZM22.3568 37.9249C28.5305 37.9249 33.5352 32.9202 33.5352 26.7465C33.5352 20.5729 28.5305 15.5682 22.3568 15.5682C16.1832 15.5682 11.1785 20.5729 11.1785 26.7465C11.1785 32.9202 16.1832 37.9249 22.3568 37.9249Z" fill="black"/>
</svg>
