<svg width="106" height="112" viewBox="0 0 106 112" fill="none" xmlns="http://www.w3.org/2000/svg">
<path opacity="0.5" d="M0 64.9954C0 58.5 -7.0201e-07 55.2493 2.31433 53.359C3.13289 52.6876 4.12811 52.1459 5.24111 51.7749C8.374 50.7325 12.4903 51.7631 20.723 53.8124C27.0064 55.3848 30.1452 56.168 33.3252 56.0855C34.4912 56.0561 35.6513 55.9383 36.7879 55.7381C39.8796 55.1904 42.6356 53.8183 48.1476 51.0682L56.286 47.0049C63.3527 43.4774 66.8801 41.7166 70.9317 41.3103C74.9832 40.904 79.0112 41.911 87.0613 43.9191L93.9219 45.6269C99.7519 47.0814 102.667 47.8116 104.333 49.543C106 51.2743 106 53.5769 106 58.1761V94.0041C106 100.5 106 103.75 103.686 105.641C102.814 106.342 101.823 106.879 100.759 107.225C97.626 108.267 93.5097 107.242 85.277 105.187C78.9936 103.615 75.8548 102.832 72.6748 102.914C71.5135 102.943 70.356 103.059 69.2121 103.261C66.1204 103.809 63.3644 105.181 57.8524 107.931L49.714 111.995C42.6473 115.522 39.1199 117.283 35.0683 117.689C31.0168 118.096 26.9888 117.089 18.9387 115.08L12.0781 113.373C6.24811 111.918 3.33311 111.188 1.66656 109.457C0 107.725 0 105.423 0 100.823V64.9954Z" fill="black"/>
<path fill-rule="evenodd" clip-rule="evenodd" d="M53.0003 0C33.4845 0 17.667 15.0284 17.667 33.5667C17.667 51.9636 28.9442 73.4286 46.5402 81.1018C48.579 81.9868 50.7778 82.4434 53.0003 82.4434C55.2229 82.4434 57.4217 81.9868 59.4604 81.1018C77.0564 73.4344 88.3337 51.9636 88.3337 33.5667C88.3337 15.0284 72.5161 0 53.0003 0ZM53.0003 47.1111C56.124 47.1111 59.1197 45.8702 61.3285 43.6615C63.5372 41.4527 64.7781 38.457 64.7781 35.3333C64.7781 32.2097 63.5372 29.2139 61.3285 27.0052C59.1197 24.7964 56.124 23.5556 53.0003 23.5556C49.8767 23.5556 46.8809 24.7964 44.6722 27.0052C42.4634 29.2139 41.2225 32.2097 41.2225 35.3333C41.2225 38.457 42.4634 41.4527 44.6722 43.6615C46.8809 45.8702 49.8767 47.1111 53.0003 47.1111Z" fill="black"/>
</svg>
