<svg width="64" height="64" viewBox="0 0 64 64" fill="none" xmlns="http://www.w3.org/2000/svg">
<path d="M32 62C48.5685 62 62 48.5685 62 32C62 15.4315 48.5685 2 32 2C15.4315 2 2 15.4315 2 32C2 48.5685 15.4315 62 32 62Z" fill="#00AFCA"/>
<path d="M56.6999 33.1C55.9999 32.7 55.1999 33.2 55.1999 33.9C54.8999 38.8 46.2999 40.1 42.1999 40.1C38.0999 40.2 29.2999 38.7 28.9999 33.9C28.9999 33.2 28.1999 32.8 27.4999 33.1C25.3999 34.2 24.6999 36.3 25.1999 38.4C26.0999 42.2 30.7999 44.9 34.7999 46.1C34.4999 46.8 34.3999 47.5 34.2999 48.2C34.1999 49 35.3999 49.3 35.9999 48.8C38.2999 47.1 41.8999 46.4 44.8999 46.4C46.1999 46.4 46.1999 44.6 44.8999 44.6C42.1999 44.6 39.2999 45.1 36.8999 46.2C37.7999 44.1 39.8999 42 42.1999 41.9H42.2999C47.0999 42 54.7999 40.3 56.7999 35.8C57.0999 36.6 57.0999 37.5 56.7999 38.3C55.7999 41.5 52.2999 42.8 48.9999 43.7C47.7999 44 48.2999 45.8 49.4999 45.4C53.6999 44.3 56.9999 42.6 58.6999 38.8C59.4999 36.8 58.6999 34.4 56.6999 33.1ZM35.5999 44.4C32.2999 43.5 29.7999 41.9 27.7999 39.3C26.9999 38.2 26.6999 36.7 27.3999 35.6C28.8999 39.1 33.7999 40.9 38.1999 41.5C37.1999 42.3 36.2999 43.3 35.5999 44.4Z" fill="#FFE62E"/>
<path d="M41.9998 34.6999C46.2524 34.6999 49.6998 31.2525 49.6998 26.9999C49.6998 22.7473 46.2524 19.2999 41.9998 19.2999C37.7472 19.2999 34.2998 22.7473 34.2998 26.9999C34.2998 31.2525 37.7472 34.6999 41.9998 34.6999Z" fill="#FFE62E"/>
<path d="M41.9999 18.3C42.4999 18.3 42.5999 18 42.5999 17.7C42.5999 17.2 41.9999 15.1 41.9999 15.1C41.9999 15.1 41.3999 17.3 41.3999 17.7C41.3999 18 41.4999 18.3 41.9999 18.3Z" fill="#FFE62E"/>
<path d="M45.3002 18.9C45.7002 19.1 46.0002 18.9 46.1002 18.6C46.3002 18.2 46.5002 15.9 46.5002 15.9C46.5002 15.9 45.1002 17.7 44.9002 18.1C44.9002 18.4 44.9002 18.8 45.3002 18.9ZM50.1002 30.3C49.9002 30.7 50.1002 31 50.4002 31.1C50.8002 31.3 53.1002 31.5 53.1002 31.5C53.1002 31.5 51.3002 30.1 50.9002 29.9C50.6002 29.9 50.2002 29.9 50.1002 30.3ZM38.7002 35.1C38.3002 34.9 38.0002 35.1001 37.9002 35.4001C37.7002 35.8001 37.5002 38.1 37.5002 38.1C37.5002 38.1 38.9002 36.3001 39.1002 35.9001C39.1002 35.6001 39.1002 35.2 38.7002 35.1ZM33.9002 23.7001C34.1002 23.3001 33.9002 23 33.6002 22.9C33.2002 22.7 30.9002 22.5 30.9002 22.5C30.9002 22.5 32.7002 23.9 33.1002 24.1C33.4002 24.1 33.8002 24.1 33.9002 23.7001ZM48.2002 20.8C48.5002 21.1 48.9002 21 49.1002 20.8C49.4002 20.5 50.5002 18.5 50.5002 18.5C50.5002 18.5 48.5002 19.6 48.2002 19.9C47.9002 20.2 47.9002 20.5 48.2002 20.8ZM48.2002 33.2001C47.9002 33.5 48.0002 33.8 48.2002 34.1C48.5002 34.4 50.5002 35.5 50.5002 35.5C50.5002 35.5 49.4002 33.5 49.1002 33.2001C48.8002 32.9001 48.5002 32.9001 48.2002 33.2001ZM35.8002 33.2001C35.5002 32.9001 35.1002 33 34.9002 33.2001C34.6002 33.5 33.5002 35.5 33.5002 35.5C33.5002 35.5 35.5002 34.4 35.8002 34.1C36.1002 33.8 36.1002 33.5 35.8002 33.2001ZM35.8002 20.8C36.1002 20.5 36.0002 20.1 35.8002 19.9C35.5002 19.6 33.5002 18.5 33.5002 18.5C33.5002 18.5 34.6002 20.5 34.9002 20.8C35.2002 21.1 35.5002 21.1 35.8002 20.8ZM50.1002 23.7001C50.3002 24.1 50.6002 24.2001 50.9002 24C51.3002 23.8 53.1002 22.4 53.1002 22.4C53.1002 22.4 50.8002 22.7 50.4002 22.8C50.1002 23 49.9002 23.2001 50.1002 23.7001ZM45.3002 35.1C44.9002 35.3 44.8002 35.6001 45.0002 35.9001C45.2002 36.3001 46.6002 38.1 46.6002 38.1C46.6002 38.1 46.3002 35.8001 46.2002 35.4001C46.0002 35.1001 45.8002 34.9 45.3002 35.1ZM33.9002 30.3C33.7002 29.9 33.4002 29.8 33.1002 30C32.7002 30.2001 30.9002 31.6 30.9002 31.6C30.9002 31.6 33.2002 31.3001 33.6002 31.2001C33.9002 31 34.1002 30.8 33.9002 30.3ZM38.7002 18.9C39.1002 18.7 39.2002 18.4 39.0002 18.1C38.8002 17.7 37.4002 15.9 37.4002 15.9C37.4002 15.9 37.7002 18.1 37.8002 18.6C38.0002 18.9 38.2002 19.1 38.7002 18.9ZM43.7002 18.4C44.1002 18.5 44.4002 18.2 44.4002 17.9C44.5002 17.5 44.3002 15.2 44.3002 15.2C44.3002 15.2 43.3002 17.2 43.2002 17.7C43.1002 18 43.3002 18.3 43.7002 18.4ZM50.6002 28.7001C50.5002 29.1 50.8002 29.4 51.1002 29.4C51.5002 29.5 53.8002 29.3 53.8002 29.3C53.8002 29.3 51.8002 28.3001 51.3002 28.2001C51.0002 28.1 50.7002 28.3001 50.6002 28.7001ZM40.3002 35.6C39.9002 35.5 39.6002 35.8 39.6002 36.1C39.5002 36.5 39.7002 38.8 39.7002 38.8C39.7002 38.8 40.7002 36.8 40.8002 36.3C40.9002 36 40.7002 35.7 40.3002 35.6ZM33.4002 25.3C33.5002 24.8 33.2002 24.6 32.9002 24.6C32.5002 24.5 30.2002 24.7001 30.2002 24.7001C30.2002 24.7001 32.2002 25.7 32.7002 25.8C33.0002 25.9 33.3002 25.7 33.4002 25.3ZM46.9002 19.7C47.3002 19.9 47.6002 19.8 47.8002 19.5C48.1002 19.1 48.7002 17 48.7002 17C48.7002 17 47.0002 18.5 46.7002 18.8C46.5002 19.1 46.5002 19.5 46.9002 19.7ZM49.3002 31.9C49.1002 32.3 49.2002 32.6 49.5002 32.8C49.9002 33.1 52.0002 33.7001 52.0002 33.7001C52.0002 33.7001 50.5002 32 50.2002 31.7001C49.9002 31.5 49.5002 31.5 49.3002 31.9ZM37.1002 34.3C36.7002 34.1 36.4002 34.2001 36.2002 34.5C36.0002 34.8 35.3002 37 35.3002 37C35.3002 37 37.0002 35.5 37.3002 35.2001C37.5002 34.9001 37.5002 34.5 37.1002 34.3ZM34.7002 22.1C34.9002 21.7 34.8002 21.4 34.5002 21.2C34.2002 21 32.0002 20.3 32.0002 20.3C32.0002 20.3 33.5002 22 33.8002 22.3C34.1002 22.5 34.5002 22.5 34.7002 22.1ZM49.3002 22.1C49.6002 22.5 49.9002 22.5 50.2002 22.3C50.6002 22 52.0002 20.3 52.0002 20.3C52.0002 20.3 49.8002 21 49.5002 21.2C49.2002 21.5 49.0002 21.8 49.3002 22.1ZM46.9002 34.3C46.5002 34.6 46.5002 34.9001 46.7002 35.2001C47.0002 35.6 48.7002 37 48.7002 37C48.7002 37 48.0002 34.8 47.8002 34.5C47.5002 34.2001 47.2002 34 46.9002 34.3ZM34.7002 31.9C34.4002 31.5 34.1002 31.5 33.8002 31.7001C33.4002 32 32.0002 33.7001 32.0002 33.7001C32.0002 33.7001 34.2002 33 34.5002 32.8C34.8002 32.5 35.0002 32.2 34.7002 31.9ZM37.1002 19.7C37.5002 19.4 37.5002 19.1 37.3002 18.8C37.0002 18.4 35.3002 17 35.3002 17C35.3002 17 36.0002 19.2 36.2002 19.5C36.5002 19.8 36.8002 20 37.1002 19.7ZM50.6002 25.3C50.7002 25.7 51.0002 25.9 51.3002 25.8C51.7002 25.7 53.8002 24.7001 53.8002 24.7001C53.8002 24.7001 51.5002 24.5 51.1002 24.6C50.7002 24.6 50.5002 24.8 50.6002 25.3ZM43.7002 35.6C43.3002 35.7 43.1002 36 43.2002 36.3C43.3002 36.7 44.3002 38.8 44.3002 38.8C44.3002 38.8 44.5002 36.5 44.4002 36.1C44.4002 35.7 44.2002 35.5 43.7002 35.6ZM33.4002 28.7001C33.3002 28.3001 33.0002 28.1 32.7002 28.2001C32.3002 28.3001 30.2002 29.3 30.2002 29.3C30.2002 29.3 32.5002 29.5 32.9002 29.4C33.3002 29.4 33.5002 29.2001 33.4002 28.7001ZM40.3002 18.4C40.7002 18.3 40.9002 18 40.8002 17.7C40.7002 17.3 39.7002 15.2 39.7002 15.2C39.7002 15.2 39.5002 17.5 39.6002 17.9C39.6002 18.3 39.8002 18.5 40.3002 18.4ZM16.5002 51.6H15.4002V55.3H13.2002C14.3002 56.2001 15.4002 56.9001 16.6002 57.7001V51.6H16.5002ZM15.4002 8.70005V12.4H16.5002V6.30005C15.3002 7.00005 14.2002 7.80005 13.1002 8.70005H15.4002ZM12.9002 8.80005C12.6002 9.00005 12.3002 9.30005 12.0002 9.60005L15.0002 16.1H12.5002V12.4H11.4002V16.1H8.9002L11.8002 9.80005C11.0002 10.5 10.2002 11.3 9.5002 12.2L7.2002 17.1L11.1002 25.5H8.6002V21.8H7.5002V31.6H8.6002V27.5H11.2002L9.7002 32L11.2002 36.4001H8.6002V32.3H7.5002V42.1H8.6002V38.4001H11.1002L7.2002 46.8L9.5002 51.7001C10.2002 52.5 11.0002 53.3 11.8002 54.1L8.9002 47.8H11.4002V51.5H12.5002V47.8H15.0002L12.0002 54.3C12.3002 54.6 12.6002 54.8 12.9002 55.1L16.7002 46.8L12.8002 38.4001H15.3002V42.1H16.4002V32.3H15.3002V36.4001H12.7002L14.2002 32L12.7002 27.6H15.3002V31.7001H16.4002V21.9H15.3002V25.6H12.8002L16.7002 17.2L12.9002 8.80005ZM15.1002 45.9001H12.6002V42.2001H11.5002V45.9001H8.9002L12.0002 39.3L15.1002 45.9001ZM12.0002 35.2001L11.2002 32.9001H12.8002L12.0002 35.2001ZM12.8002 31.1H11.2002L12.0002 28.8L12.8002 31.1ZM12.0002 24.8L8.9002 18.2H11.4002V21.9H12.5002V18.2H15.0002L12.0002 24.8Z" fill="#FFE62E"/>
</svg>
