<svg width="65" height="64" viewBox="0 0 65 64" fill="none" xmlns="http://www.w3.org/2000/svg">
<path d="M3.7001 26.6V27.6H4.3001V28.6H4.9001V27.6H5.5001V26.6H6.1001V25.6H6.7001V24.6H7.3001V23.6H7.9001V22.6H7.1001V21.6H6.6001V20.6H4.8001V21.6H6.0001V22.6H5.4001V23.6H4.8001V24.6H4.2001V23.6H3.7001C3.5001 24.4 3.3001 25.3 3.1001 26.1V26.5H3.7001V26.6ZM10.6001 11.5L10.3001 11.8H10.6001V11.5Z" fill="white"/>
<path d="M15.3 7.89998H14.7V8.89998H14.1V9.89998H13.5V10.9H12.9V11.9H12.3V10.9H11.7V10.4L11.1 11V11.9H11.7V12.9H12.3V13.9H11.7V14.9H11.1V15.9H10.5V14.9H10V13.9H9.5V12.9C9.3 13.1 9.1 13.4 8.9 13.6V13.9H8.7C8.5 14 8.4 14.1 8.3 14.3V14.8H7.9C7.8 14.9 7.8 15 7.7 15.1V15.7H7.3C7.1 16 6.9 16.4 6.7 16.7H7.2V17.7H7.8V18.7H8.4V19.7H9V20.7H9.5V19.7H10.1V18.7H10.7V17.7H11.3V16.7H11.9V15.7H12.5V14.7H13.1V15.7H13.5V16.7H14.1V17.7H14.7V18.7H15.3V19.7H15.9V17.7H15.3V16.7H15.9V13.8H15.3V14.8H14.7V15.8H14.1V14.8H13.5V13.8H12.9V12.8H13.5V11.8H14.1V10.8H14.7V11.8H15.3V12.8H15.9V9.79998H15.3V8.79998H15.9V7.09998C15.7 7.19998 15.5 7.39998 15.3 7.49998V7.89998ZM9.5 17.7H8.9V15.7H9.5V17.7ZM3.1 35.4V34.4H3.7V33.4H4.3V32.4H4.9V31.4H4.2V30.4H3.7V29.4H3.1V28.4H2.7C2.6 29.7 2.5 30.8 2.5 32C2.5 33.2 2.6 34.3 2.7 35.4H3.1ZM15.3 29.5H14.7V30.5H14.1V31.5H13.5V32.5H14.1V33.5H14.7V34.5H15.3V35.4H15.8V28.6H15.3V29.5Z" fill="white"/>
<path d="M9.9999 12.1C9.7999 12.3 9.5999 12.6 9.3999 12.8H9.9999V12.1ZM10.2999 52.2L10.5999 52.5V52.2H10.2999ZM9.4999 51.2C9.6999 51.4 9.8999 51.7 10.0999 51.9V51.2H9.4999Z" fill="white"/>
<path d="M15.3001 55.0999V54.0999H15.9001V51.0999H15.3001V52.0999H14.7001V53.0999H14.1001V52.0999H13.5001V51.0999H12.9001V50.0999H13.5001V49.0999H14.1001V48.0999H14.7001V49.0999H15.3001V50.0999H15.9001V47.0999H15.3001V46.0999H15.9001V44.0999H15.3001V45.0999H14.7001V46.0999H14.1001V47.0999H13.5001V48.0999H12.9001V49.0999H12.3001V48.0999H11.7001V47.0999H11.1001V46.0999H10.5001V45.0999H10.0001V44.0999H9.5001V43.0999H8.9001V44.0999H8.3001V45.0999H7.7001V46.0999H7.1001V47.0999H6.7001C6.9001 47.3999 7.1001 47.7999 7.3001 48.0999H7.7001V48.7C7.8001 48.8 7.8001 48.9 7.9001 49H8.3001V49.5C8.4001 49.9 8.5001 50 8.7001 50.2H8.9001V50.5C9.1001 50.7 9.3001 51 9.5001 51.2V50.2H10.1001V49.2H10.7001V48.2H11.3001V49.2H11.9001V50.2H12.5001V51.2H11.9001V52.2H11.3001V53.0999L11.9001 53.7V53.2H12.5001V52.2H13.1001V53.2H13.5001V54.2H14.1001V55.2H14.7001V56.2H15.3001V56.5999C15.5001 56.6999 15.7001 56.9 15.9001 57V55.2L15.3001 55.0999ZM9.5001 48.2H8.9001V46.2H9.5001V48.2ZM15.3001 37.4H14.7001V36.4H14.1001V35.4H13.5001V36.4H12.9001V37.4H12.4001V38.4H11.8001V39.4H11.2001V40.4H10.6001V41.2999H11.2001V42.2999H11.8001V43.2999H13.5001V42.2999H12.4001V41.2999H12.9001V40.4H13.5001V39.4H14.1001V40.4H14.7001V41.2999H15.3001V42.2999H15.8001V40.4H15.3001V39.4H15.8001V38.4H15.3001V37.4ZM15.3001 22.7H14.7001V23.6H14.1001V24.6H13.5001V23.6H12.9001V22.7H12.4001V21.7H13.5001V20.7H11.8001V21.7H11.2001V22.7H10.6001V23.6H11.2001V24.6H11.8001V25.6H12.4001V26.6H12.9001V27.6H13.5001V28.6H14.1001V27.6H14.7001V26.6H15.3001V25.6H15.8001V24.6H15.3001V23.6H15.8001V21.7H15.3001V22.7ZM4.2001 39.4H4.8001V40.4H5.4001V41.4H6.0001V42.4H4.8001V43.4H6.5001V42.4H7.1001V41.4H7.7001V40.4H7.1001V39.4H6.6001V38.4H6.0001V37.4H5.4001V36.4H4.8001V35.4H4.2001V36.4H3.7001V37.4H3.1001V37.7999C3.3001 38.6999 3.5001 39.5 3.7001 40.2999H4.2001V39.4ZM10.6001 26.6H10.0001V25.6H9.5001V24.6H8.9001V25.6H8.3001V26.6H7.7001V27.6H7.1001V28.6H6.6001V29.6H6.0001V34.5999H6.6001V35.5999H7.2001V36.5999H7.8001V37.5999H8.4001V38.5999H9.0001V39.5999H9.5001V38.5999H10.1001V37.5999H10.7001V36.5999H11.3001V35.5999H11.9001V34.5999H12.5001V29.6H11.9001V28.6H11.3001V27.6H10.7001L10.6001 26.6ZM7.1001 31.9V32.5H6.6001V31.5H7.2001V31.9H7.1001ZM11.2001 32.0999V31.5H11.8001V32.5H11.2001V32.0999ZM8.9001 26.6H9.5001V27.6H8.9001V26.6ZM9.5001 37.4H8.9001V36.4H9.5001V37.4ZM10.6001 30.5H10.0001V31.5H9.5001V32.5H10.1001V33.5H10.7001V35.5H10.0001V34.5H9.5001V33.5H8.9001V34.5H8.3001V35.5H7.7001V33.5H8.3001V32.5H8.9001V31.5H8.3001V30.5H7.7001V28.5H8.3001V29.5H8.9001V30.5H9.5001V29.5H10.1001V28.5H10.7001L10.6001 30.5Z" fill="white"/>
<path d="M7.7001 15.1C7.6001 15.3 7.4001 15.5 7.3001 15.7H7.7001V15.1ZM8.3001 14.8V14.3C8.2001 14.5 8.1001 14.6 7.9001 14.8H8.3001ZM8.9001 13.8V13.5C8.8001 13.6 8.8001 13.7 8.7001 13.8H8.9001ZM6.6001 31.9V32.5H7.1001V31.5H6.6001V31.9ZM15.3001 16.8H15.9001V17.8H15.3001V16.8ZM10.0001 13.8V14.8H10.6001V15.8H11.2001V14.8H11.8001V13.8H12.4001V12.8H11.8001V11.8H11.2001V10.9L10.6001 11.5V11.8H10.3001L10.0001 12.1V12.8H9.5001V13.8H10.0001ZM15.3001 8.9H15.9001V9.9H15.3001V8.9ZM15.3001 11.8H14.7001V10.9H14.1001V11.8H13.5001V12.8H12.9001V13.8H13.5001V14.8H14.1001V15.8H14.7001V14.8H15.3001V13.8H15.8001V12.8H15.3001V11.8ZM12.4001 10.9V11.9H13.0001V10.9H13.5001V9.9H14.1001V8.9H14.7001V7.9H15.3001V7.5C14.2001 8.3 13.1001 9.1 12.2001 10C12.1001 10.1 12.0001 10.2 11.8001 10.3V10.8H12.4001V10.9ZM9.1001 15.8H8.9001V17.7H9.5001V15.8H9.2001H9.1001ZM10.0001 29.5H9.5001V30.5H8.9001V29.5H8.3001V28.6H7.7001V30.5H8.3001V31.5H8.9001V32.5H8.3001V33.5H7.7001V35.4H8.3001V34.5H8.9001V33.5H9.5001V34.5H10.0001V35.4H10.6001V33.5H10.0001V32.5H9.5001V31.5H10.0001V30.5H10.6001V28.6H10.0001V29.5ZM15.3001 23.6H15.9001V24.6H15.3001V23.6Z" fill="#C8313E"/>
<path d="M15.3002 18.7H14.7002V17.7H14.1002V16.7H13.5002V15.7H12.9002V14.7H12.3002V15.7H11.7002V16.7H11.1002V17.7H10.5002V18.7H10.0002V19.7H9.5002V20.7H8.9002V19.7H8.3002V18.7H7.7002V17.7H7.10019V16.7H6.7002C6.10019 17.7 5.5002 18.8 5.0002 19.9C4.5002 21.1 4.1002 22.3 3.7002 23.5H4.2002V24.5H4.8002V23.5H5.4002V22.5H6.0002V21.5H4.8002V20.5H6.5002V21.5H7.10019V22.5H7.7002V23.5H7.10019V24.5H6.6002V25.5H6.0002V26.5H5.4002V27.5H4.8002V28.5H4.2002V27.5H3.7002V26.5H3.1002V26.1C2.9002 26.9 2.8002 27.7 2.7002 28.5H3.1002V29.5H3.7002V30.5H4.3002V31.5H4.9002V32.5H4.2002V33.5H3.7002V34.5H3.1002V35.5H2.7002C2.8002 36.2999 2.9002 37.1 3.1002 37.9V37.5H3.7002V36.5H4.3002V35.5H4.9002V36.5H5.5002V37.5H6.1002V38.5H6.7002V39.5H7.3002V40.5H7.9002V41.5H7.10019V42.5H6.6002V43.5H4.8002V42.5H6.0002V41.5H5.4002V40.5H4.8002V39.5H4.2002V40.5H3.7002C4.1002 41.6 4.5002 42.7999 5.0002 44C5.5002 45.1 6.10019 46.2 6.7002 47.2H7.2002V46.2H7.8002V45.2H8.4002V44.2H9.0002V43.2H9.5002V44.2H10.1002V45.2H10.7002V46.2H11.3002V47.2H11.9002V48.2H12.5002V49.2H13.1002V48.2H13.5002V47.2H14.1002V46.2H14.7002V45.2H15.3002V44.2H15.9002V42.2H15.3002V41.2H14.7002V40.2H14.1002V39.2H13.5002V40.2H12.9002V41.2H12.3002V42.2H13.5002V43.2H11.8002V42.2H11.2002V41.2H10.6002V40.2H11.2002V39.2H11.8002V38.2H12.4002V37.2H13.0002V36.2H13.5002V35.2H14.1002V36.2H14.7002V37.2H15.3002V38.2H15.9002V35.2H15.3002V34.2H14.7002V33.2H14.1002V32.2H13.5002V31.2H14.1002V30.2H14.7002V29.2H15.3002V28.2H15.9002V25.2H15.3002V26.2H14.7002V27.2H14.1002V28.2H13.5002V27.2H12.9002V26.2H12.3002V25.2H11.7002V24.2H11.1002V23.2H10.5002V22.2H11.1002V21.2H11.7002V20.2H13.5002V21.2H12.3002V22.2H12.9002V23.2H13.5002V24.2H14.1002V23.2H14.7002V22.2H15.3002V21.2H15.9002V19.2H15.3002V18.7ZM11.2002 27.6V28.6H11.8002V29.6H12.4002V34.5999H11.8002V35.5999H11.2002V36.5999H10.6002V37.5999H10.0002V38.5999H9.5002V39.5999H8.9002V38.5999H8.3002V37.5999H7.7002V36.5999H7.10019V35.5999H6.6002V34.5999H6.0002V29.6H6.6002V28.6H7.2002V27.6H7.8002V26.6H8.4002V25.6H9.0002V24.6H9.5002V25.6H10.1002V26.6H10.7002V27.6H11.2002Z" fill="#C8313E"/>
<path d="M9.20029 27.6H9.50029V26.6H8.90029V27.6H9.10029H9.20029ZM7.70029 48.2H7.30029C7.40029 48.4 7.60029 48.6 7.70029 48.8V48.2ZM8.30029 49.2H7.90029C8.00029 49.4 8.10029 49.5 8.30029 49.7V49.2ZM8.90029 50.2H8.70029C8.80029 50.3 8.80029 50.4 8.90029 50.5V50.2ZM15.3003 46.3H15.9003V47.3H15.3003V46.3ZM15.3003 49.2H14.7003V48.2H14.1003V49.2H13.5003V50.2H12.9003V51.2H13.5003V52.2H14.1003V53.1H14.7003V52.2H15.3003V51.2H15.8003V50.2H15.3003V49.2ZM10.0003 51.2V51.9L10.3003 52.2H10.6003V52.5L11.2003 53.1V52.2H11.8003V51.2H12.4003V50.2H11.8003V49.2H11.2003V48.2H10.6003V49.2H10.0003V50.2H9.50029V51.2H10.0003ZM15.3003 54.1H15.9003V55.1H15.3003V54.1ZM12.1003 54C13.1003 54.9 14.1003 55.8 15.2003 56.5V56.1H14.6003V55.1H14.0003V54.1H13.5003V53.1H12.9003V52.1H12.3003V53.1H11.7003V53.6L12.1003 54ZM9.10029 46.3H8.90029V48.2H9.50029V46.3H9.20029H9.10029ZM15.3003 39.4H15.9003V40.4H15.3003V39.4ZM11.8003 32.1V31.5H11.2003V32.5H11.8003V32.1ZM9.10029 36.4H8.90029V37.4H9.50029V36.4H9.20029H9.10029Z" fill="#C8313E"/>
<path d="M15.7998 44V56.9C20.5998 60.1 26.2998 62 32.4998 62C40.3998 62 47.4998 59 52.8998 54C55.8998 51.2 58.3998 47.8 59.9998 44H15.7998Z" fill="#83BF4F"/>
<path d="M59.9998 44C61.5998 40.3 62.4998 36.3 62.4998 32C62.4998 27.7 61.5998 23.7 59.9998 20C58.2998 16.2 55.8998 12.8 52.8998 10C47.4998 5 40.3998 2 32.4998 2C26.2998 2 20.5998 3.9 15.7998 7.1V44H59.9998Z" fill="#C94747"/>
</svg>
