<svg width="65" height="64" viewBox="0 0 65 64" fill="none" xmlns="http://www.w3.org/2000/svg">
<path d="M52.5999 10C47.1999 5 40.1 2 32.2 2C24.3 2 17.2 5 11.8 10H52.5999ZM11.8 54C17.2 59 24.3 62 32.2 62C40.1 62 47.1999 59 52.5999 54H11.8ZM2.19995 32C2.19995 36.3 3.09995 40.3 4.69995 44H59.7C61.2999 40.3 62.2 36.3 62.2 32C62.2 27.7 61.2999 23.7 59.7 20H4.69995C3.09995 23.7 2.19995 27.7 2.19995 32Z" fill="#F9F9F9"/>
<path d="M11.9 54H52.5999C55.5999 51.2 58.1 47.8 59.7 44H4.69995C6.39995 47.8 8.89995 51.2 11.9 54ZM52.5999 10H11.9C8.89995 12.8 6.39995 16.2 4.79995 20H59.7999C58.0999 16.2 55.5999 12.8 52.5999 10ZM41.2 27H35.2L32.2 22L29.2 27H23.2L26.2 32L23.2 37H29.2L32.2 42L35.2 37H41.2L38.2 32L41.2 27ZM32.2 24.9L33.5 27H31L32.2 24.9ZM25.9 28.5H28.4L27.2 30.6L25.9 28.5ZM25.9 35.5L27.1 33.4L28.2999 35.5H25.9ZM32.2 39.1L31 37H33.5L32.2 39.1ZM34.4 35.5H30.2L28 32L30.1 28.5H34.2999L36.5 32L34.4 35.5ZM38.5999 35.5H36.0999L37.2999 33.4L38.5999 35.5ZM37.4 30.5L36.2 28.4H38.7L37.4 30.5Z" fill="#428BC1"/>
</svg>
