<svg width="65" height="64" viewBox="0 0 65 64" fill="none" xmlns="http://www.w3.org/2000/svg">
<path d="M32.5 62C49.0685 62 62.5 48.5685 62.5 32C62.5 15.4315 49.0685 2 32.5 2C15.9315 2 2.5 15.4315 2.5 32C2.5 48.5685 15.9315 62 32.5 62Z" fill="#F42F4C"/>
<path d="M50.1999 34.3C48.8999 33.2 46.5999 33.4 44.9999 33.5C46.7999 32.6 49.5999 30.8 51.4999 32.4C50.0999 30.5 46.9999 31.1 45.0999 31.5C46.6999 30.3 49.1999 28.2 51.2999 29.4C49.5999 27.7 46.5999 28.8 44.7999 29.6C46.1999 28.2 48.2999 25.7 50.5999 26.5C48.6999 25.1 45.8999 26.6 44.1999 27.7C45.2999 26.1 47.0999 23.3 49.4999 23.8C47.3999 22.7 44.8999 24.7 43.3999 25.9C44.2999 24.1 45.4999 21.1 47.9999 21.2C45.6999 20.5 43.5999 22.8 42.2999 24.3C42.8999 22.4 43.5999 19.2 46.0999 18.9C43.7999 18.5 41.9999 21.1 40.9999 22.8C41.2999 20.8 41.4999 17.5 43.8999 16.9C41.4999 16.9 40.1999 19.8 39.3999 21.6C39.3999 19.6 39.0999 16.3 41.3999 15.3C39.0999 15.7 38.1999 18.7 37.6999 20.6C37.3999 18.6 36.5999 15.4 38.5999 14.1C36.2999 14.8 35.9999 18 35.7999 19.9C35.1999 18 33.8999 15 35.6999 13.3C33.5999 14.4 33.6999 17.5 33.7999 19.5C32.8999 17.7 31.0999 14.9 32.6999 13C30.7999 14.4 31.3999 17.5 31.7999 19.4C30.5999 17.8 28.4999 15.3 29.6999 13.2C27.9999 14.9 29.0999 17.8 29.8999 19.7C28.4999 18.3 25.9999 16.2 26.7999 13.9C25.3999 15.8 26.8999 18.6 27.9999 20.3C26.3999 19.2 23.5999 17.4 24.0999 15C22.9999 17.1 24.9999 19.6 26.2999 21.1C24.4999 20.2 21.4999 19 21.5999 16.5C20.8999 18.7 23.1999 20.9 24.6999 22.2C22.7999 21.6 19.5999 20.9 19.2999 18.4C18.8999 20.7 21.4999 22.5 23.1999 23.5C21.1999 23.2 17.8999 23 17.2999 20.6C17.2999 23 20.1999 24.3 21.9999 25.1C19.9999 25.1 16.6999 25.4 15.6999 23.1C16.0999 25.4 19.0999 26.3 20.9999 26.8C18.9999 27.1 15.7999 27.9 14.4999 25.9C15.1999 28.2 18.3999 28.5 20.2999 28.7C18.3999 29.3 15.3999 30.6 13.6999 28.8C14.7999 30.9 17.8999 30.8 19.8999 30.7C18.0999 31.6 15.2999 33.4 13.3999 31.8C14.7999 33.7 17.8999 33.1 19.7999 32.7C18.1999 33.9 15.6999 36 13.5999 34.8C15.2999 36.5 18.1999 35.4 20.0999 34.6C18.6999 36 16.5999 38.5 14.2999 37.7C16.1999 39.1 18.9999 37.6 20.6999 36.5C19.5999 38.1 17.7999 40.9 15.3999 40.4C17.4999 41.5 19.9999 39.5 21.4999 38.2C20.5999 40 19.3999 43 16.8999 42.9C19.1999 43.6 21.2999 41.3 22.5999 39.8C21.9999 41.7 21.2999 44.9 18.7999 45.2C21.0999 45.6 22.8999 42.9 23.8999 41.3C23.5999 43.3 23.3999 46.6 20.9999 47.2C23.3999 47.2 24.6999 44.3 25.4999 42.5C25.4999 44.5 25.7999 47.8 23.4999 48.8C25.7999 48.4 26.6999 45.4 27.1999 43.5C27.4999 45.5 28.2999 48.7 26.2999 50C28.5999 49.3 28.8999 46.1 29.0999 44.2C29.6999 46.1 30.9999 49.1 29.1999 50.8C31.2999 49.7 31.1999 46.6 31.0999 44.6C31.9999 46.4 33.7999 49.2 32.1999 51.1C34.0999 49.7 33.4999 46.6 33.0999 44.7C34.2999 46.3 36.3999 48.8 35.1999 50.9C36.8999 49.2 35.7999 46.3 34.9999 44.4C36.3999 45.8 38.8999 47.9 38.0999 50.2C39.4999 48.3 37.9999 45.5 36.8999 43.8C38.4999 44.9 41.2999 46.7 40.7999 49.1C41.8999 47 39.8999 44.5 38.6999 43C40.4999 43.9 43.4999 45.1 43.3999 47.6C44.0999 45.3 41.7999 43.2 40.2999 41.9C42.1999 42.5 45.3999 43.2 45.6999 45.7C46.0999 43.3 43.3999 41.6 41.7999 40.6C43.7999 40.9 46.9999 41.1 47.6999 43.5C47.6999 41.1 44.7999 39.8 42.9999 39C44.9999 39 48.2999 38.7 49.2999 41C48.8999 38.6 45.8999 37.8 43.9999 37.3C45.9999 37 49.1999 36.2 50.4999 38.2C49.7999 36 46.5999 35.5 44.6999 35.4C46.5999 34.7 49.5999 33.5 51.2999 35.3C50.9999 34.9 50.5999 34.6 50.1999 34.3ZM32.4999 44C27.9999 44 23.7999 41.4 21.7999 37.4C19.6999 33.4 20.1999 28.4 22.8999 24.7C25.5999 21.1 30.1999 19.3 34.6999 20.1C39.0999 20.9 42.6999 24.2 43.9999 28.4C46.2999 36.1 40.3999 44 32.4999 44Z" fill="#FFE62E"/>
<path d="M25.3 25C23.5 26.8 22.5 29.3 22.5 32C22.5 34 23.1 35.9 24.1 37.5C24.9 33.8 26.6 30.4 28.8 27.6C27.8 26.6 26.6 25.7 25.3 25ZM31.8 24.4C31 23.7 30.1 23.1 29.2 22.5C28.8 22.6 28.4 22.8 28 23C29 23.6 30 24.4 31 25.1C31.2 25 31.5 24.7 31.8 24.4ZM30.3 25.9C29.3 25 28.2 24.3 27 23.6C26.7 23.8 26.4 24.1 26.1 24.3C27.3 25 28.5 25.8 29.5 26.8C29.7 26.5 30 26.2 30.3 25.9ZM29.6 28.2C27.3 31.2 25.7 34.7 24.9 38.5C25.4 39 25.9 39.5 26.5 40C26.9 36 28.3 32.3 30.5 29.2C30.2 28.8 29.9 28.5 29.6 28.2ZM34.5 29.2C36.7 32.3 38.2 36 38.5 40C39.1 39.6 39.6 39.1 40.1 38.5C39.4 34.7 37.7 31.2 35.4 28.2C35.1 28.5 34.8 28.8 34.5 29.2ZM31.7 29.2C32 29.6 32.3 29.9 32.5 30.3C32.8 29.9 33 29.6 33.3 29.2C33 28.9 32.8 28.5 32.5 28.2C32.2 28.5 31.9 28.8 31.7 29.2ZM34.6 22.2C33.9 22.1 33.2 22 32.5 22C31.8 22 31.1 22.1 30.4 22.2C31.1 22.7 31.9 23.2 32.5 23.8C33.2 23.2 33.9 22.7 34.6 22.2Z" fill="#FFE62E"/>
<path d="M31.9998 31.2L31.0998 30C28.9998 33.1 27.5998 36.7 27.2998 40.6L29.0998 41.5V41.2C29.1998 37.5 30.1998 34.1 31.9998 31.2ZM32.4998 26.7L33.3998 25.8C33.0998 25.5 32.7998 25.2 32.4998 25C32.1998 25.3 31.8998 25.5 31.5998 25.8L32.4998 26.7ZM33.9998 28.4C34.2998 28.1 34.5998 27.7 34.8998 27.4C34.5998 27.1 34.3998 26.8 34.0998 26.5L33.1998 27.4C33.3998 27.8 33.6998 28.1 33.9998 28.4ZM30.9998 26.6C30.6998 26.9 30.4998 27.2 30.1998 27.5C30.4998 27.8 30.7998 28.1 31.0998 28.5C31.3998 28.2 31.5998 27.8 31.8998 27.5C31.5998 27.1 31.2998 26.8 30.9998 26.6Z" fill="#FFE62E"/>
<path d="M32.4999 32.1C30.9999 34.8 30.0999 37.9 30.0999 41.1V41.7C30.8999 41.9 31.6999 42 32.4999 42C33.2999 42 34.0999 41.9 34.8999 41.7V41.1C34.8999 37.8 33.9999 34.7 32.4999 32.1ZM33.0999 31.2C34.8999 34.1 35.8999 37.5 35.8999 41.2V41.5C36.4999 41.3 37.1999 41 37.6999 40.6C37.3999 36.7 36.0999 33.1 33.8999 30C33.5999 30.3 33.2999 30.7 33.0999 31.2ZM34.0999 25.2C34.9999 24.4 35.9999 23.7 37.0999 23.1C36.6999 22.9 36.2999 22.7 35.8999 22.6C34.9999 23.2 34.0999 23.8 33.2999 24.5C33.4999 24.7 33.7999 25 34.0999 25.2ZM40.8999 37.5C41.8999 35.9 42.4999 34 42.4999 32C42.4999 29.3 41.3999 26.8 39.6999 25C38.3999 25.7 37.1999 26.5 36.1999 27.5C38.3999 30.4 39.9999 33.8 40.8999 37.5ZM35.4999 26.8C36.4999 25.9 37.6999 25 38.8999 24.3C38.5999 24 38.2999 23.8 37.9999 23.6C36.7999 24.3 35.7999 25 34.6999 25.9C34.9999 26.2 35.2999 26.5 35.4999 26.8Z" fill="#FFE62E"/>
</svg>
